<?xml version="1.0" standalone="no"?>
<!DOCTYPE svg PUBLIC "-//W3C//DTD SVG 20010904//EN"
 "http://www.w3.org/TR/2001/REC-SVG-20010904/DTD/svg10.dtd">
<svg version="1.0" xmlns="http://www.w3.org/2000/svg"
 width="900.000000pt" height="900.000000pt" viewBox="0 0 900.000000 900.000000"
 preserveAspectRatio="xMidYMid meet">
<metadata>
Created by potrace 1.10, written by Peter Selinger 2001-2011
</metadata>
<g transform="translate(0.000000,900.000000) scale(0.100000,-0.100000)"
fill="#d4c70c" stroke="none">
<path d="M2610 8949 c-223 -6 -441 -24 -478 -39 -13 -6 -37 -10 -55 -10 -18 0
-48 -5 -67 -11 -19 -5 -57 -14 -85 -19 -27 -4 -63 -12 -80 -18 -16 -6 -64 -20
-105 -32 -41 -12 -84 -25 -95 -30 -11 -4 -39 -15 -62 -24 -24 -9 -62 -23 -85
-32 -123 -48 -346 -167 -419 -225 -20 -16 -40 -29 -44 -29 -3 0 -23 -13 -43
-30 -20 -16 -57 -46 -82 -66 -129 -103 -338 -330 -435 -474 -92 -135 -245
-429 -245 -469 0 -6 -7 -27 -16 -48 -28 -63 -33 -76 -44 -118 -7 -22 -21 -69
-31 -105 -34 -110 -64 -269 -79 -415 -5 -49 -14 -120 -20 -158 -12 -78 -12
-802 -1 -832 5 -13 10 10 15 70 4 50 13 146 21 215 26 235 35 325 45 465 6 77
13 147 15 155 3 9 10 49 15 90 6 41 15 106 20 144 6 38 21 106 35 150 13 45
32 108 41 141 9 33 30 94 46 135 17 41 37 93 45 114 27 75 128 273 155 303 8
10 25 36 36 59 11 22 37 60 58 85 20 24 47 60 59 79 27 42 314 333 353 357 15
10 56 40 92 66 35 27 76 54 89 61 14 6 36 21 49 33 12 11 35 24 50 28 15 4 31
10 37 15 25 21 206 110 223 110 10 0 22 4 27 9 6 5 42 19 80 31 39 12 90 30
115 40 25 10 58 23 73 29 15 6 41 11 56 11 16 0 45 7 64 15 20 8 49 15 65 15
15 0 33 5 39 11 6 6 53 15 105 19 178 16 373 42 384 51 10 8 85 18 259 33 33
3 181 11 328 17 148 7 262 16 255 20 -18 10 -522 15 -778 8z"/>
<path d="M5895 8953 c-200 -3 -245 -7 -232 -19 3 -3 144 -10 314 -15 436 -12
613 -28 613 -54 0 -17 12 -19 26 -5 6 6 30 6 69 -1 33 -6 87 -12 120 -14 98
-7 138 -15 180 -35 22 -10 58 -20 80 -23 95 -11 172 -31 201 -53 20 -15 44
-24 68 -24 23 0 61 -13 102 -35 35 -19 75 -35 88 -35 13 0 29 -7 36 -15 11
-13 10 -18 -6 -30 -21 -16 -22 -16 63 -18 68 -2 94 -16 74 -40 -13 -17 4 -27
45 -27 13 0 24 -4 24 -9 0 -14 110 -81 134 -81 33 0 48 -14 42 -41 -7 -30 48
-79 67 -60 16 16 37 14 37 -4 0 -8 -4 -15 -10 -15 -17 0 -11 -18 8 -24 20 -7
98 -82 165 -159 77 -89 95 -107 107 -107 6 0 19 -20 30 -45 21 -48 33 -55 49
-27 9 16 10 16 17 -2 5 -12 3 -21 -4 -24 -17 -5 -15 -47 3 -62 8 -7 24 -10 36
-7 18 5 20 2 18 -31 -1 -20 -1 -43 0 -49 1 -15 37 -17 46 -3 9 15 25 2 25 -21
0 -42 78 -209 97 -209 9 0 13 -20 14 -67 1 -65 1 -66 14 -39 l13 30 15 -30
c23 -45 30 -90 17 -114 -6 -11 -8 -30 -4 -42 6 -21 7 -21 19 2 13 24 13 24 30
-15 9 -22 19 -67 22 -100 3 -33 10 -65 15 -72 6 -7 14 -27 18 -45 5 -18 16
-60 24 -93 8 -33 15 -80 16 -105 0 -25 11 -106 24 -180 26 -141 39 -317 57
-780 6 -151 13 -277 15 -279 2 -2 6 -2 9 1 8 8 8 950 0 970 -4 9 -13 74 -20
145 -15 139 -18 159 -41 278 -15 79 -36 162 -56 220 -5 17 -15 48 -20 70 -6
22 -15 44 -19 50 -5 5 -9 18 -9 30 0 11 -7 29 -15 39 -8 11 -15 28 -15 39 0
10 -6 31 -14 45 -8 15 -29 59 -46 97 -18 39 -37 77 -41 85 -5 8 -13 24 -18 35
-5 11 -21 37 -35 58 -14 21 -26 41 -26 44 0 17 -142 214 -206 287 -128 146
-285 295 -359 342 -16 10 -33 22 -36 27 -4 5 -15 14 -27 20 -11 7 -53 35 -94
62 -41 28 -133 79 -204 114 -71 35 -141 70 -156 77 -14 8 -35 14 -45 14 -11 0
-28 7 -39 15 -10 8 -26 15 -35 15 -9 0 -30 7 -45 15 -16 8 -37 15 -46 15 -10
0 -32 6 -50 14 -82 34 -298 78 -478 97 -52 5 -124 14 -160 19 -75 11 -391 17
-695 13z"/>
<path d="M6950 8791 c0 -17 18 -21 24 -6 3 9 0 15 -9 15 -8 0 -15 -4 -15 -9z"/>
<path d="M3589 8266 c-3 -3 -209 -6 -459 -7 -250 -1 -486 -6 -525 -10 -38 -5
-95 -11 -125 -14 -284 -27 -406 -48 -500 -85 -25 -10 -85 -30 -135 -46 -49
-15 -97 -34 -106 -41 -10 -8 -41 -21 -70 -28 -30 -8 -55 -19 -57 -24 -2 -6
-27 -24 -56 -41 -122 -69 -308 -224 -398 -331 -45 -53 -129 -174 -158 -226
-11 -21 -24 -45 -29 -53 -56 -97 -111 -248 -151 -410 -69 -286 -79 -376 -100
-895 -11 -270 -15 -2324 -5 -2685 3 -113 7 -284 10 -380 10 -445 57 -846 121
-1025 8 -22 26 -74 40 -115 36 -110 144 -320 190 -372 11 -13 32 -41 46 -64
15 -23 76 -91 136 -152 98 -99 154 -144 257 -207 19 -12 42 -28 52 -37 24 -21
178 -98 197 -98 8 0 17 -4 20 -9 6 -9 80 -35 135 -46 18 -4 53 -16 78 -27 25
-11 70 -24 101 -28 32 -5 84 -14 117 -20 148 -27 465 -56 705 -64 96 -4 238
-9 315 -12 204 -7 2569 -6 2775 2 96 4 189 7 205 7 17 0 73 3 125 8 282 26
405 41 495 59 96 20 134 30 256 71 31 11 63 19 71 19 7 0 19 5 25 11 6 6 46
26 90 43 43 18 95 44 116 59 21 14 48 29 60 33 12 4 26 12 32 19 5 6 53 43
106 83 255 189 463 506 559 852 7 25 19 65 26 90 19 62 41 206 60 385 15 148
20 343 23 928 1 257 3 297 16 297 10 0 15 10 15 31 0 24 -4 30 -15 25 -13 -5
-15 27 -16 252 0 141 -2 428 -4 637 -2 209 -7 688 -10 1065 -9 867 -5 802 -71
1208 -4 24 -9 32 -20 28 -11 -4 -14 8 -14 65 0 60 -2 69 -17 67 -26 -5 -54 84
-46 147 6 44 4 49 -9 37 -14 -11 -19 -8 -38 15 -14 19 -19 35 -15 52 5 18 -1
31 -25 56 -18 19 -27 35 -22 39 11 7 -14 66 -28 66 -4 0 -17 22 -29 49 -11 27
-29 52 -38 55 -10 4 -25 21 -33 39 -11 23 -22 32 -40 32 -20 0 -26 7 -31 35
-4 19 -13 36 -21 39 -7 2 -26 18 -43 36 -71 73 -184 165 -204 165 -14 0 -25 9
-31 26 -10 24 -14 26 -50 20 -31 -5 -41 -3 -48 11 -5 10 -7 24 -5 31 4 11 -19
16 -79 15 -10 0 -18 6 -18 13 0 21 -158 75 -249 84 -64 7 -92 15 -120 35 -33
22 -50 26 -156 31 -72 3 -148 13 -193 25 -44 12 -87 18 -106 15 -17 -3 -47 -1
-66 6 -22 7 -124 12 -275 13 -1823 11 -2418 16 -2460 21 -28 3 -53 3 -56 0z
m2466 -100 c424 -21 635 -39 740 -66 28 -6 77 -19 110 -27 119 -29 222 -64
313 -105 34 -15 66 -28 71 -28 5 0 14 -7 21 -15 7 -8 18 -15 25 -15 14 0 82
-44 179 -116 114 -83 298 -284 352 -384 11 -19 31 -53 45 -75 34 -54 101 -217
133 -320 38 -125 46 -159 46 -186 0 -16 6 -46 14 -66 8 -21 17 -78 20 -128 3
-49 9 -106 15 -125 9 -36 17 -177 29 -540 10 -287 9 -2732 -1 -2977 -17 -430
-37 -669 -66 -803 -28 -127 -45 -189 -68 -255 -13 -38 -29 -84 -34 -102 -5
-18 -14 -35 -19 -38 -6 -4 -10 -17 -10 -30 0 -13 -4 -26 -9 -30 -6 -3 -21 -29
-36 -58 -14 -28 -35 -65 -45 -82 -11 -16 -23 -37 -27 -45 -15 -32 -163 -208
-219 -260 -58 -54 -156 -133 -198 -158 -11 -7 -34 -22 -51 -32 -45 -29 -204
-106 -255 -124 -105 -38 -159 -54 -220 -69 -36 -8 -87 -21 -115 -27 -117 -29
-356 -49 -770 -65 -294 -12 -2665 -17 -2820 -6 -153 11 -263 15 -295 11 -49
-7 -422 14 -463 26 -26 7 -55 10 -63 7 -9 -3 -41 0 -72 7 -120 26 -148 31
-192 34 -25 2 -58 9 -75 16 -51 21 -67 27 -151 53 -78 25 -163 58 -194 78 -8
5 -26 14 -40 20 -115 51 -318 219 -433 359 -87 106 -157 205 -157 221 0 5 -13
33 -30 64 -34 62 -85 193 -95 243 -4 18 -13 45 -21 60 -8 15 -14 44 -14 64 0
20 -4 39 -9 42 -4 3 -11 25 -14 48 -4 24 -12 68 -18 98 -6 30 -12 85 -14 122
-2 36 -7 72 -11 80 -12 18 -34 449 -25 468 5 8 3 76 -3 150 -13 158 -16 2574
-3 2905 16 426 38 689 66 805 7 25 19 77 28 115 17 75 39 146 73 235 12 30 24
63 27 74 3 10 16 37 29 60 13 22 28 50 33 62 5 11 22 40 38 65 117 185 311
377 478 475 79 46 88 51 130 72 35 17 59 26 153 63 120 47 341 99 507 119 99
13 317 25 610 35 104 3 192 9 195 11 6 6 2737 -4 2875 -10z"/>
<path d="M6760 7415 c-14 -8 -34 -15 -45 -15 -11 -1 -38 -12 -60 -25 -22 -14
-50 -29 -62 -34 -29 -13 -141 -125 -154 -154 -5 -12 -21 -42 -34 -66 -14 -24
-25 -52 -25 -61 0 -10 -7 -34 -15 -53 -20 -48 -19 -165 1 -236 29 -101 83
-195 148 -259 61 -60 179 -132 214 -132 11 0 37 -7 58 -16 67 -28 231 -8 334
41 75 35 95 50 154 110 60 60 88 106 129 209 32 78 35 237 7 319 -32 94 -76
166 -139 227 -67 65 -101 90 -161 114 -25 10 -60 24 -78 32 -45 19 -238 19
-272 -1z m144 -80 c25 -19 46 -19 46 0 0 19 17 19 50 0 14 -8 37 -14 52 -15
20 0 25 -4 21 -18 -6 -24 19 -44 65 -51 30 -5 38 -12 46 -38 5 -18 17 -35 28
-38 10 -4 25 -22 33 -41 9 -22 21 -34 33 -34 31 0 45 -26 39 -69 -3 -28 0 -43
12 -55 13 -13 13 -18 3 -25 -9 -5 -14 -44 -16 -132 l-4 -124 -28 0 c-24 0 -30
-5 -32 -26 -5 -45 -89 -122 -155 -143 -13 -4 -16 -12 -11 -31 6 -24 -10 -37
-18 -14 -2 7 -18 2 -42 -12 -34 -20 -43 -21 -80 -12 -33 9 -45 9 -67 -4 -25
-15 -30 -15 -61 0 -19 9 -44 14 -56 10 -16 -4 -22 -1 -22 11 0 10 -8 16 -21
16 -12 0 -34 12 -49 28 -16 15 -52 49 -80 76 -29 27 -58 63 -65 80 -8 17 -23
40 -35 51 -30 27 -52 83 -41 104 6 10 5 35 -2 64 -8 37 -7 52 4 73 7 14 12 39
10 56 -3 33 22 78 44 78 8 0 19 8 24 19 15 27 113 126 134 134 9 3 22 18 27
31 12 33 39 46 97 46 26 0 55 5 63 10 20 13 31 12 54 -5z"/>
<path d="M4220 6785 c-30 -8 -70 -14 -89 -15 -35 0 -152 -24 -211 -42 -19 -6
-51 -15 -70 -19 -19 -4 -80 -24 -135 -44 -55 -20 -110 -39 -122 -42 -12 -3
-28 -11 -34 -19 -6 -8 -19 -14 -28 -15 -9 0 -47 -18 -86 -40 -38 -21 -81 -43
-94 -49 -36 -16 -186 -116 -276 -184 -72 -55 -297 -271 -351 -337 -92 -114
-173 -227 -226 -319 -52 -90 -108 -201 -108 -214 0 -8 -6 -19 -14 -25 -8 -6
-16 -22 -19 -34 -3 -12 -22 -67 -42 -122 -55 -150 -77 -238 -99 -390 -8 -49
-19 -109 -25 -133 -17 -60 -13 -450 4 -522 7 -30 16 -84 20 -120 3 -36 10 -78
15 -95 5 -16 18 -66 29 -110 21 -86 78 -250 112 -325 88 -192 150 -298 257
-445 79 -109 88 -119 232 -265 120 -122 200 -189 335 -281 215 -147 463 -260
695 -319 41 -10 89 -22 105 -26 17 -5 39 -9 50 -11 115 -15 165 -23 190 -31
53 -16 446 -15 518 2 34 8 91 17 127 21 36 3 79 10 95 15 17 5 73 21 125 35
142 39 151 41 210 65 30 12 65 24 77 27 12 3 28 11 34 19 6 8 17 14 25 14 21
0 201 98 306 166 377 247 668 592 855 1014 9 19 20 43 25 53 4 9 23 63 42 120
57 170 84 278 93 371 3 33 12 86 19 116 20 79 19 446 -1 523 -8 32 -15 74 -15
94 0 50 -34 198 -77 338 -25 81 -71 203 -84 225 -5 8 -12 22 -15 30 -38 92
-123 246 -191 344 -50 72 -73 102 -148 196 -24 29 -238 244 -281 280 -52 46
-147 115 -235 173 -97 63 -334 187 -359 187 -9 0 -20 4 -25 9 -10 10 -77 36
-130 51 -16 4 -43 13 -60 19 -84 29 -271 71 -321 71 -22 0 -61 7 -88 15 -66
20 -455 20 -536 0z m565 -101 c39 -8 86 -16 105 -18 91 -9 193 -35 202 -50 6
-11 23 -16 49 -16 22 0 52 -6 68 -14 15 -8 59 -26 99 -40 39 -13 82 -32 94
-40 12 -9 33 -16 46 -16 12 0 25 -7 28 -15 4 -8 12 -15 19 -15 7 0 24 -9 38
-20 14 -11 31 -20 37 -20 7 0 29 -13 50 -30 21 -16 41 -30 44 -30 3 0 34 -20
68 -45 35 -24 83 -59 108 -77 25 -17 55 -41 67 -52 11 -12 40 -37 64 -56 37
-31 75 -69 198 -199 19 -20 41 -47 50 -61 38 -59 94 -130 102 -130 5 0 9 -6 9
-14 0 -8 21 -45 46 -82 51 -75 102 -174 179 -349 31 -71 82 -238 94 -310 7
-38 20 -99 29 -135 24 -96 23 -552 -2 -700 -35 -208 -92 -404 -150 -515 -9
-17 -16 -37 -16 -45 0 -8 -9 -30 -20 -48 -11 -18 -32 -54 -46 -80 -14 -26 -34
-60 -44 -77 -11 -16 -26 -46 -35 -65 -9 -19 -27 -46 -40 -60 -13 -14 -43 -56
-68 -93 -53 -81 -268 -303 -389 -401 -259 -211 -585 -369 -903 -438 -180 -38
-264 -47 -475 -47 -245 0 -421 23 -585 75 -44 15 -105 33 -134 40 -60 16 -227
87 -307 131 -29 15 -71 39 -95 52 -41 22 -129 80 -209 137 -19 14 -53 41 -75
61 -73 64 -208 188 -216 198 -5 6 -32 37 -60 70 -102 119 -257 347 -274 405
-7 22 -72 160 -109 230 -24 46 -81 248 -110 395 -52 256 -44 650 17 900 8 33
21 89 30 125 8 36 22 80 31 97 9 18 16 37 16 44 0 27 117 271 177 369 75 122
107 169 184 265 99 123 274 291 399 383 125 92 183 132 203 138 12 4 24 10 27
13 10 13 60 41 72 41 6 0 28 11 47 24 20 13 74 39 121 57 47 17 103 40 126 50
22 11 46 19 52 19 6 0 51 12 99 26 49 14 117 30 153 35 36 4 85 13 110 19 112
28 474 30 605 4z"/>
<path d="M4317 6083 c-3 -2 -33 -8 -68 -13 -145 -22 -336 -82 -452 -142 -220
-113 -362 -218 -487 -360 -44 -51 -92 -105 -106 -120 -13 -15 -24 -30 -24 -33
0 -4 -15 -30 -34 -58 -50 -78 -105 -185 -128 -252 -11 -33 -30 -78 -41 -100
-11 -22 -24 -58 -28 -80 -4 -22 -16 -85 -27 -140 -27 -137 -32 -225 -22 -395
15 -252 88 -498 206 -686 24 -40 44 -74 44 -78 0 -9 70 -107 104 -145 111
-123 281 -281 303 -281 5 0 18 -10 29 -21 10 -12 33 -28 50 -35 17 -7 55 -29
85 -49 30 -19 79 -45 109 -56 30 -11 59 -24 65 -29 5 -4 42 -18 80 -30 170
-53 193 -58 390 -80 120 -14 133 -14 254 -1 222 22 398 71 576 158 106 52 235
131 235 144 0 5 19 18 41 30 45 23 232 203 270 260 13 20 47 69 74 109 28 40
53 78 56 84 3 6 14 27 23 46 10 19 24 46 31 60 104 204 156 429 157 680 0 215
-23 361 -87 545 -14 40 -25 79 -25 85 0 7 -9 24 -19 39 -11 15 -23 40 -27 57
-4 16 -26 57 -50 92 -24 35 -44 65 -44 68 0 3 -28 41 -62 86 -35 44 -67 88
-73 97 -29 47 -207 206 -310 276 -128 86 -179 111 -375 182 -88 31 -128 41
-330 78 -67 13 -353 19 -363 8z m387 -108 c27 -8 65 -15 85 -15 19 0 53 -6 76
-14 22 -7 67 -22 100 -32 33 -10 67 -21 75 -25 8 -4 51 -24 95 -45 309 -146
562 -399 709 -709 47 -98 50 -106 72 -175 9 -30 23 -72 30 -93 8 -20 14 -55
14 -76 0 -21 7 -60 15 -87 18 -59 21 -367 4 -411 -6 -15 -14 -57 -19 -93 -4
-36 -12 -78 -18 -95 -6 -16 -18 -57 -28 -90 -10 -33 -21 -67 -25 -75 -4 -8
-24 -51 -45 -95 -73 -155 -168 -289 -294 -415 -166 -166 -384 -301 -585 -364
-27 -8 -72 -22 -99 -31 -27 -8 -64 -15 -81 -15 -18 0 -54 -7 -81 -15 -68 -21
-360 -21 -428 0 -27 8 -63 15 -81 15 -17 0 -54 7 -81 15 -187 59 -184 58 -304
119 -299 153 -533 392 -674 691 -46 97 -50 106 -70 170 -9 28 -23 72 -31 98
-8 26 -15 63 -15 81 0 18 -7 55 -15 82 -21 68 -21 360 0 428 8 27 15 66 15 87
0 21 6 56 14 76 7 21 21 63 30 93 21 64 22 67 80 200 4 8 12 24 19 35 7 11 25
43 41 70 27 46 58 90 119 169 76 101 274 273 392 342 27 16 59 34 70 41 11 7
27 15 35 19 132 58 136 59 195 78 28 9 72 23 98 31 26 8 62 15 80 15 18 0 52
7 77 14 65 21 367 21 434 1z"/>
<path d="M8280 5022 c0 -23 4 -42 9 -42 6 0 7 17 4 38 -8 51 -13 53 -13 4z"/>
<path d="M8277 4573 c-11 -10 -8 -101 3 -108 6 -4 10 17 10 54 0 62 -1 66 -13
54z"/>
<path d="M8925 3233 c-4 -65 -9 -156 -11 -203 -8 -191 -13 -270 -24 -370 -6
-58 -13 -125 -16 -149 -2 -25 -9 -59 -14 -77 -6 -18 -13 -56 -15 -86 -1 -29
-8 -69 -14 -88 -6 -19 -11 -58 -11 -87 0 -28 -4 -55 -10 -58 -5 -3 -10 -23
-10 -44 0 -21 -3 -41 -7 -45 -9 -9 -32 -94 -33 -122 0 -29 -40 -155 -56 -179
-8 -11 -14 -35 -14 -55 0 -19 -12 -55 -26 -80 -14 -25 -33 -65 -41 -90 -35
-104 -156 -312 -266 -455 -21 -27 -54 -70 -72 -95 -69 -92 -317 -312 -474
-421 -62 -43 -276 -158 -309 -165 -15 -4 -31 -10 -37 -14 -17 -13 -206 -87
-265 -103 -30 -9 -94 -27 -142 -42 -48 -14 -120 -30 -160 -36 -40 -5 -98 -14
-128 -19 -88 -14 -314 -39 -460 -50 -74 -6 -149 -15 -166 -20 -17 -6 -50 -10
-75 -10 -82 0 -290 -23 -281 -32 5 -5 181 -7 393 -5 362 3 590 15 669 36 19 5
78 17 130 26 52 9 115 23 140 30 121 34 197 57 212 66 10 5 26 9 35 9 10 0 27
7 37 15 11 8 26 15 33 15 12 0 71 25 193 83 25 11 73 38 108 59 34 21 64 38
67 38 5 0 157 101 165 110 3 3 37 30 75 60 130 100 261 232 363 365 26 33 50
65 54 70 29 36 76 102 81 115 4 8 16 29 27 45 67 104 133 242 197 410 9 22 19
49 24 60 4 11 13 38 19 60 7 22 21 69 31 105 33 108 61 254 79 410 6 52 15
127 20 165 13 86 14 945 1 958 -4 4 -12 -43 -16 -110z"/>
<path d="M40 3055 c-2 -38 -3 -124 -1 -172 1 -13 6 -23 11 -23 12 0 12 138 1
195 l-9 40 -2 -40z"/>
<path d="M57 2788 c-11 -41 -29 -358 -22 -376 10 -25 28 -191 26 -237 -1 -22
2 -49 7 -60 17 -37 33 -121 26 -138 -3 -10 -2 -23 4 -30 6 -6 13 -34 17 -62 4
-27 14 -59 21 -70 8 -11 14 -33 14 -50 0 -16 7 -39 15 -49 8 -11 15 -29 15
-41 0 -11 9 -38 20 -60 11 -21 23 -55 26 -74 4 -20 15 -47 25 -60 11 -13 19
-32 19 -43 0 -11 11 -34 25 -52 14 -18 25 -37 25 -42 0 -6 9 -27 20 -49 11
-22 20 -45 20 -52 0 -8 7 -16 15 -19 8 -4 23 -25 33 -48 10 -22 26 -47 35 -55
10 -7 17 -19 17 -25 0 -7 15 -30 33 -52 18 -21 41 -52 51 -69 11 -16 31 -43
47 -60 15 -16 50 -57 78 -90 58 -68 75 -85 145 -150 27 -25 54 -45 58 -45 5 0
29 -20 52 -45 24 -25 48 -45 54 -45 6 0 34 -19 64 -42 61 -50 77 -60 136 -89
24 -11 46 -27 48 -34 3 -8 19 -17 34 -20 33 -7 137 -61 145 -76 4 -5 17 -9 29
-9 13 0 34 -8 47 -19 13 -10 40 -21 60 -25 19 -3 53 -15 74 -26 22 -11 49 -20
60 -20 12 0 30 -7 41 -15 10 -8 33 -15 49 -15 17 0 39 -6 50 -14 11 -7 43 -17
70 -21 28 -4 56 -11 62 -17 7 -6 20 -7 30 -4 17 7 101 -9 138 -26 11 -5 40 -8
65 -7 25 1 86 -4 135 -12 90 -13 322 -14 398 -1 73 13 43 27 -83 39 -69 7
-174 19 -235 27 -60 9 -137 18 -170 21 -33 4 -76 10 -95 15 -20 5 -53 12 -75
15 -64 8 -93 15 -215 52 -194 59 -287 92 -363 128 -41 19 -78 35 -84 35 -5 0
-29 13 -54 28 -24 16 -89 55 -144 87 -55 32 -116 72 -135 87 -189 155 -237
197 -302 270 -79 87 -172 202 -223 277 -81 118 -87 128 -118 201 -6 14 -17 32
-23 40 -7 8 -22 40 -34 70 -11 30 -36 91 -54 135 -19 44 -40 100 -46 125 -7
25 -26 86 -42 135 -16 50 -34 115 -39 145 -5 30 -14 75 -18 100 -26 139 -52
332 -61 450 -18 250 -29 315 -43 258z"/>
<path d="M2873 48 c4 -14 75 -18 167 -9 l55 5 -45 7 c-79 13 -182 11 -177 -3z"/>
</g>
</svg>
