<?xml version="1.0" standalone="no"?>
<!DOCTYPE svg PUBLIC "-//W3C//DTD SVG 20010904//EN"
 "http://www.w3.org/TR/2001/REC-SVG-20010904/DTD/svg10.dtd">
<svg version="1.0" xmlns="http://www.w3.org/2000/svg"
 width="900.000000pt" height="903.000000pt" viewBox="0 0 900.000000 903.000000"
 preserveAspectRatio="xMidYMid meet">
<metadata>
Created by potrace 1.10, written by Peter Selinger 2001-2011
</metadata>
<g transform="translate(0.000000,903.000000) scale(0.100000,-0.100000)"
fill="#14ff4f" stroke="none">
<path d="M4175 8389 c-55 -4 -147 -14 -205 -23 -58 -9 -132 -20 -165 -25 -33
-5 -87 -16 -120 -25 -32 -9 -71 -16 -87 -16 -15 0 -30 -4 -33 -10 -3 -5 -20
-10 -36 -10 -16 0 -46 -7 -66 -15 -19 -8 -45 -15 -57 -15 -11 0 -34 -7 -50
-15 -15 -8 -35 -15 -43 -15 -15 0 -65 -20 -116 -46 -16 -8 -37 -14 -48 -14
-10 0 -36 -9 -56 -20 -21 -11 -43 -20 -48 -20 -6 0 -35 -11 -63 -25 -29 -14
-56 -25 -60 -25 -7 0 -62 -26 -102 -49 -8 -4 -49 -25 -90 -45 -112 -55 -168
-87 -239 -134 -35 -23 -67 -42 -71 -42 -6 0 -123 -81 -155 -107 -47 -39 -110
-83 -120 -83 -6 0 -20 -10 -32 -22 -26 -29 -92 -89 -120 -109 -51 -35 -194
-173 -321 -309 -136 -146 -342 -407 -342 -434 0 -7 -6 -16 -14 -19 -15 -6 -59
-71 -117 -171 -19 -32 -42 -70 -51 -85 -10 -14 -20 -33 -24 -41 -3 -8 -9 -22
-14 -30 -5 -8 -18 -35 -30 -60 -11 -25 -24 -52 -30 -60 -18 -28 -80 -160 -80
-172 0 -6 -6 -19 -13 -27 -7 -9 -21 -41 -31 -71 -10 -30 -27 -69 -37 -86 -11
-17 -19 -42 -19 -56 0 -13 -4 -28 -8 -34 -4 -5 -16 -36 -26 -69 -9 -33 -22
-73 -28 -90 -5 -16 -13 -48 -17 -70 -4 -22 -13 -50 -19 -62 -7 -12 -12 -35
-12 -52 0 -16 -4 -32 -9 -36 -6 -3 -13 -27 -17 -53 -3 -26 -12 -74 -20 -107
-8 -33 -14 -83 -14 -110 0 -28 -5 -56 -10 -61 -18 -18 -45 -377 -45 -579 1
-186 26 -470 45 -505 6 -10 10 -41 10 -69 0 -27 9 -91 21 -143 68 -305 89
-378 171 -593 52 -138 52 -136 124 -290 122 -260 117 -244 110 -315 -4 -36
-11 -78 -16 -95 -5 -16 -16 -57 -25 -90 -9 -33 -30 -102 -46 -154 -16 -52 -33
-115 -36 -140 -3 -25 -12 -55 -19 -66 -8 -11 -14 -32 -14 -47 0 -15 -7 -45
-15 -65 -15 -39 -55 -180 -81 -288 -24 -97 -32 -126 -55 -200 -12 -38 -24 -88
-26 -110 -3 -22 -9 -45 -14 -50 -8 -11 -50 -163 -74 -270 -8 -33 -19 -80 -25
-104 -11 -44 -6 -81 11 -81 5 0 9 22 9 48 0 26 6 54 12 60 7 7 18 34 24 60 7
26 19 72 29 102 9 30 20 79 25 109 5 30 14 57 21 61 6 4 13 27 14 51 2 24 10
58 19 74 9 17 16 42 16 57 0 15 4 29 9 32 4 3 11 27 14 53 3 26 10 49 16 51 6
2 11 19 11 38 0 19 9 55 21 80 11 25 18 51 16 57 -2 7 4 34 14 60 11 26 19 59
19 72 0 14 5 25 10 25 6 0 10 22 10 49 0 30 5 53 15 61 7 6 17 33 21 58 3 26
10 52 14 57 5 6 11 28 15 50 4 22 11 45 15 50 4 6 11 34 15 62 4 29 10 55 15
58 4 3 11 30 15 60 3 30 10 55 15 55 4 0 11 20 14 45 4 25 14 57 22 73 18 35
18 71 0 91 -19 21 -136 251 -136 267 0 6 -6 17 -14 23 -8 7 -17 27 -20 46 -4
19 -11 35 -16 35 -6 0 -10 8 -10 18 0 10 -7 27 -15 38 -8 10 -15 27 -15 37 0
9 -9 34 -20 54 -11 21 -20 48 -20 60 0 13 -4 23 -10 23 -5 0 -13 18 -16 40 -4
22 -11 43 -15 46 -5 3 -9 15 -9 27 0 12 -7 34 -14 49 -8 16 -18 49 -22 75 -3
27 -11 53 -16 59 -5 7 -11 35 -15 63 -3 28 -10 54 -14 57 -5 3 -9 20 -9 37 0
18 -9 66 -20 107 -12 45 -18 87 -14 107 4 23 1 41 -11 59 -32 49 -45 466 -28
845 6 128 13 192 22 203 8 9 14 49 16 96 2 45 8 87 14 93 11 14 27 93 40 190
4 32 13 62 19 66 7 4 15 29 18 55 2 26 11 54 19 63 8 8 15 30 15 48 0 19 4 36
9 39 5 4 12 24 16 46 4 22 11 40 16 40 5 0 9 15 9 34 0 19 7 41 15 49 7 8 17
26 21 41 3 14 10 29 15 32 5 3 9 12 9 20 0 16 30 90 55 136 8 14 15 33 15 42
0 9 4 16 9 16 5 0 12 14 16 30 4 17 10 30 14 30 9 0 46 79 46 98 0 7 5 16 11
20 10 7 60 87 82 132 16 33 31 57 65 101 15 20 27 44 27 52 0 8 7 17 15 21 8
3 15 12 15 21 0 8 4 15 9 15 5 0 20 17 32 38 13 20 29 41 36 45 7 4 13 13 13
19 0 12 57 87 125 162 6 6 28 34 49 61 50 64 435 445 450 445 6 0 25 14 43 30
29 27 166 132 223 170 12 8 28 20 34 26 7 6 21 14 33 18 11 4 33 18 48 32 15
14 37 30 49 35 29 13 102 56 154 90 24 16 47 29 52 29 10 0 73 33 80 42 3 3
17 9 32 13 15 4 29 13 32 21 3 8 15 14 26 14 11 0 28 4 38 9 61 34 174 81 191
81 12 0 21 4 21 9 0 5 15 13 33 16 17 4 37 11 42 15 6 4 27 10 48 14 20 4 37
11 37 15 0 5 19 11 41 15 23 4 51 13 62 21 12 8 36 15 54 15 18 0 41 4 51 9
23 12 106 32 170 42 29 4 60 13 68 20 8 7 49 14 92 17 42 2 83 9 89 14 7 6 57
12 111 14 54 1 129 8 168 15 90 16 466 17 569 3 44 -7 124 -15 178 -18 55 -4
106 -10 115 -15 10 -4 52 -11 95 -15 44 -4 86 -11 95 -15 10 -5 40 -13 67 -19
70 -14 136 -32 160 -43 11 -5 39 -11 62 -13 24 -2 48 -8 55 -14 7 -5 30 -13
51 -17 20 -4 39 -11 42 -15 3 -5 23 -11 45 -15 22 -4 40 -10 40 -15 0 -4 16
-11 36 -15 20 -3 44 -10 53 -15 9 -5 39 -19 66 -30 28 -12 59 -25 70 -30 83
-37 115 -50 124 -50 5 0 11 -4 13 -8 2 -4 39 -25 83 -47 44 -22 112 -59 151
-82 39 -24 77 -43 83 -43 6 0 11 -3 11 -8 0 -4 17 -16 37 -27 20 -11 41 -25
47 -30 13 -12 66 -48 82 -55 6 -3 24 -15 40 -28 16 -12 69 -52 118 -88 48 -36
96 -74 105 -83 9 -9 39 -34 66 -56 91 -76 257 -240 348 -345 50 -58 96 -109
102 -115 6 -5 55 -68 108 -140 53 -71 101 -135 106 -141 6 -7 18 -27 29 -45
40 -73 57 -99 65 -99 4 0 7 -5 7 -11 0 -6 25 -52 55 -102 30 -51 59 -107 66
-124 6 -18 15 -33 20 -33 5 0 9 -9 9 -19 0 -11 7 -26 15 -35 8 -8 15 -18 15
-22 0 -7 62 -143 80 -176 6 -10 10 -23 10 -30 0 -7 7 -25 14 -40 8 -16 25 -58
37 -95 12 -38 26 -72 30 -78 4 -5 10 -28 14 -50 4 -22 11 -44 15 -50 7 -9 18
-51 39 -145 4 -19 12 -44 18 -55 6 -11 13 -44 17 -74 4 -30 10 -60 14 -65 8
-12 27 -134 42 -263 5 -45 15 -102 21 -125 17 -57 17 -699 0 -778 -6 -30 -15
-89 -20 -130 -18 -142 -33 -235 -41 -250 -4 -9 -10 -36 -14 -60 -4 -25 -14
-70 -22 -100 -60 -210 -76 -261 -91 -297 -7 -17 -13 -36 -13 -42 0 -6 -6 -25
-14 -43 -8 -18 -21 -49 -30 -70 -9 -20 -16 -41 -16 -46 0 -6 -7 -23 -15 -39
-8 -15 -28 -59 -45 -98 -17 -38 -36 -77 -41 -85 -5 -8 -12 -22 -15 -30 -7 -18
-10 -24 -63 -123 -23 -43 -51 -93 -62 -110 -10 -18 -22 -39 -26 -47 -3 -8 -9
-17 -13 -20 -3 -3 -24 -34 -45 -70 -39 -64 -112 -171 -138 -200 -7 -8 -35 -44
-62 -80 -27 -36 -54 -70 -60 -76 -5 -6 -30 -35 -55 -65 -107 -129 -239 -261
-385 -387 -60 -52 -111 -99 -113 -104 -2 -4 -8 -8 -14 -8 -9 0 -89 -59 -108
-80 -3 -3 -27 -20 -55 -39 -27 -19 -78 -54 -113 -78 -35 -24 -65 -43 -67 -43
-2 0 -23 -12 -47 -27 -75 -48 -82 -53 -108 -64 -13 -5 -27 -13 -30 -17 -7 -9
-249 -129 -277 -137 -13 -3 -23 -11 -23 -16 0 -5 -7 -9 -16 -9 -16 0 -65 -19
-117 -46 -16 -8 -33 -14 -39 -14 -5 0 -24 -6 -41 -14 -18 -8 -77 -29 -132 -46
-55 -18 -118 -38 -140 -46 -22 -7 -58 -16 -80 -20 -22 -4 -44 -9 -50 -13 -12
-7 -112 -27 -203 -41 -35 -5 -68 -12 -74 -16 -20 -13 -234 -35 -435 -46 -284
-14 -617 5 -863 51 -103 19 -225 46 -235 53 -5 3 -34 9 -62 13 -29 4 -55 11
-58 15 -3 5 -23 11 -46 15 -22 4 -53 13 -67 21 -15 8 -37 14 -49 14 -12 0 -24
4 -27 9 -3 5 -22 12 -43 16 -20 4 -46 13 -57 21 -11 8 -28 14 -37 14 -10 0
-30 6 -46 14 -15 8 -46 22 -68 31 -97 40 -314 146 -321 156 -8 13 -52 11 -77
-3 -20 -10 -69 -23 -185 -48 -23 -5 -51 -14 -61 -20 -11 -5 -32 -10 -48 -10
-15 0 -41 -7 -57 -15 -15 -8 -39 -15 -52 -15 -14 0 -41 -7 -61 -15 -19 -8 -43
-15 -53 -15 -17 0 -70 -14 -170 -45 -25 -7 -63 -17 -85 -21 -22 -3 -44 -9 -50
-13 -5 -3 -32 -11 -60 -17 -27 -7 -76 -19 -107 -28 -153 -42 -251 -67 -338
-86 -25 -6 -52 -13 -60 -17 -16 -7 -81 -24 -165 -43 -27 -6 -58 -15 -68 -21
-9 -5 -39 -12 -65 -16 -26 -3 -51 -9 -57 -13 -5 -4 -27 -10 -47 -14 -21 -4
-40 -11 -43 -16 -19 -31 92 -21 280 25 61 14 135 32 166 39 30 8 65 18 77 25
11 6 31 11 43 11 12 0 36 4 53 10 107 33 145 44 176 50 67 14 465 119 495 130
17 6 48 15 70 20 22 5 68 16 103 24 34 9 88 22 120 30 31 8 71 19 87 24 40 14
168 42 191 42 24 0 121 -36 148 -56 11 -8 26 -14 33 -14 6 0 50 -18 97 -40 47
-22 90 -40 96 -40 6 0 28 -9 49 -20 22 -11 115 -44 208 -75 92 -30 182 -59
198 -65 17 -5 53 -12 80 -16 28 -3 66 -12 85 -19 148 -57 790 -116 1020 -94
41 4 131 13 200 19 108 9 216 25 410 60 120 22 399 102 536 155 197 75 376
153 424 185 8 6 27 15 43 21 15 6 27 15 27 20 0 5 4 9 10 9 16 0 214 113 248
142 18 15 36 28 41 28 5 0 34 19 65 42 30 24 72 54 92 68 20 14 65 49 100 78
35 28 66 52 70 52 25 0 370 342 464 460 36 45 85 105 110 135 25 29 56 70 70
90 14 20 39 55 57 78 18 23 46 67 64 97 18 30 48 80 68 110 42 65 58 95 162
302 44 86 79 161 79 167 0 6 11 34 24 63 52 116 142 385 170 508 10 41 23 102
31 135 8 33 19 94 25 135 6 41 15 91 20 110 24 96 35 294 34 620 -1 224 -5
295 -27 460 -27 201 -46 301 -66 338 -6 11 -11 34 -11 51 0 17 -7 52 -15 78
-8 26 -22 73 -31 103 -33 112 -47 156 -60 185 -12 29 -18 46 -65 170 -36 97
-187 403 -246 500 -96 156 -225 345 -288 421 -170 208 -349 396 -494 519 -45
39 -101 86 -124 106 -23 20 -62 50 -87 68 -25 17 -56 40 -70 52 -14 11 -59 42
-100 69 -41 26 -109 70 -152 97 -42 28 -116 70 -165 94 -48 24 -92 49 -96 56
-4 7 -19 13 -32 13 -13 0 -26 4 -29 9 -3 4 -45 25 -93 46 -48 21 -110 48 -138
60 -27 12 -81 33 -120 45 -38 13 -77 26 -85 30 -8 4 -40 14 -70 23 -30 9 -86
25 -124 36 -38 12 -81 21 -96 21 -14 0 -30 4 -35 9 -11 10 -145 39 -240 51
-33 5 -80 13 -105 18 -144 33 -608 49 -855 31z"/>
<path d="M4319 7716 c-3 -3 -70 -10 -150 -15 -79 -5 -164 -14 -189 -20 -25 -5
-70 -15 -100 -20 -30 -6 -86 -17 -125 -26 -38 -9 -86 -20 -105 -24 -19 -4 -45
-13 -57 -19 -12 -7 -34 -12 -50 -12 -16 0 -37 -6 -48 -13 -11 -7 -53 -23 -93
-36 -40 -13 -75 -27 -78 -32 -3 -5 -14 -9 -26 -9 -11 0 -32 -6 -46 -14 -15 -8
-88 -45 -162 -81 -154 -75 -231 -117 -277 -151 -17 -13 -34 -24 -37 -24 -10 0
-188 -124 -221 -154 -11 -10 -36 -30 -55 -45 -131 -99 -351 -318 -458 -456
-25 -33 -51 -64 -57 -70 -19 -17 -75 -92 -75 -101 -1 -5 -14 -25 -30 -44 -17
-19 -30 -38 -30 -43 0 -4 -5 -13 -11 -20 -42 -47 -224 -391 -273 -517 -10 -25
-23 -54 -29 -65 -5 -11 -14 -33 -18 -50 -4 -16 -19 -61 -32 -100 -48 -137 -80
-265 -107 -430 -6 -38 -18 -106 -27 -150 -24 -118 -24 -673 0 -800 9 -49 21
-119 27 -155 17 -94 26 -138 39 -195 18 -73 71 -245 87 -283 8 -18 14 -41 14
-50 0 -10 7 -27 15 -38 8 -10 15 -27 15 -36 0 -9 7 -29 14 -45 8 -15 51 -102
96 -193 45 -91 89 -177 98 -191 9 -15 31 -51 49 -80 17 -30 43 -69 57 -88 27
-36 27 -58 0 -110 -8 -14 -14 -34 -14 -45 0 -10 -7 -39 -14 -65 -8 -25 -22
-71 -30 -101 -26 -95 -44 -163 -61 -225 -10 -33 -23 -82 -30 -110 -8 -27 -21
-76 -30 -107 -8 -32 -22 -84 -31 -115 -9 -32 -20 -71 -26 -88 -5 -16 -12 -41
-15 -55 -3 -14 -16 -54 -30 -89 -30 -77 -23 -89 39 -74 24 6 57 16 73 22 17 6
55 17 85 25 152 41 179 48 225 61 61 17 128 34 175 44 19 4 45 13 57 19 12 7
34 12 50 12 15 0 48 6 73 14 43 14 85 26 218 62 31 8 78 22 103 30 51 15 95
18 101 7 4 -10 65 -53 74 -53 3 0 25 -12 48 -27 53 -36 268 -141 371 -183 44
-17 95 -38 113 -46 18 -8 41 -14 52 -14 10 0 21 -4 25 -9 3 -5 20 -12 38 -16
17 -4 50 -12 72 -20 98 -32 224 -63 305 -75 30 -5 84 -13 120 -19 261 -42 509
-51 723 -27 84 10 179 22 212 27 33 5 85 14 115 18 60 10 126 25 205 46 83 24
289 88 305 96 8 4 35 15 60 24 99 37 344 156 400 193 19 13 44 28 55 33 50 24
138 83 270 182 196 147 328 270 510 477 37 42 215 277 215 284 0 3 19 33 43
68 24 35 46 70 50 78 4 8 23 42 42 75 54 94 165 324 165 342 0 6 6 24 14 40 8
15 21 46 29 68 40 110 46 131 68 215 6 25 15 53 20 62 5 9 13 44 18 77 5 33
15 69 20 80 6 11 11 37 11 58 0 21 5 54 10 73 12 39 24 153 40 371 8 103 8
190 0 295 -16 228 -27 341 -34 352 -3 6 -11 41 -16 79 -9 67 -18 106 -46 211
-30 112 -47 168 -60 200 -8 18 -14 41 -14 50 0 10 -7 27 -15 38 -8 10 -15 25
-15 32 0 8 -7 30 -16 50 -8 21 -21 51 -28 67 -8 17 -27 60 -45 97 -17 37 -31
72 -31 77 0 5 -7 14 -15 21 -8 7 -15 19 -15 26 0 8 -12 33 -27 57 -15 23 -38
62 -51 87 -154 287 -496 673 -807 910 -69 53 -269 186 -335 223 -124 70 -370
187 -394 187 -8 0 -17 4 -20 9 -3 5 -38 19 -78 32 -40 12 -78 27 -84 31 -6 4
-31 12 -55 17 -24 5 -57 14 -74 19 -65 23 -138 42 -160 42 -12 0 -42 7 -65 15
-23 8 -60 15 -81 15 -21 0 -50 5 -66 11 -50 19 -618 51 -634 35z m401 -101
c85 -4 184 -14 220 -22 36 -8 92 -19 125 -23 33 -4 80 -14 105 -20 105 -28
158 -44 210 -62 30 -10 89 -30 130 -43 41 -12 89 -30 105 -39 17 -9 36 -16 44
-16 7 0 45 -16 85 -36 39 -20 85 -44 101 -52 95 -48 187 -99 235 -131 30 -21
91 -61 134 -91 44 -29 94 -68 113 -86 18 -19 39 -34 45 -34 23 0 328 -290 328
-312 0 -5 7 -8 15 -8 9 0 19 -8 22 -17 4 -10 19 -31 34 -48 72 -79 124 -143
155 -189 19 -28 41 -62 51 -76 68 -102 83 -126 83 -134 0 -4 14 -25 30 -46 17
-21 30 -41 30 -45 0 -5 18 -39 40 -77 56 -98 106 -215 184 -433 112 -315 175
-725 161 -1052 -8 -193 -37 -492 -49 -512 -3 -4 -10 -32 -15 -62 -15 -82 -46
-207 -71 -279 -72 -211 -94 -271 -120 -320 -15 -30 -31 -66 -35 -80 -4 -14
-29 -61 -55 -105 -26 -44 -51 -90 -54 -101 -4 -12 -15 -29 -26 -39 -11 -10
-20 -25 -20 -34 0 -15 -94 -157 -172 -260 -90 -119 -259 -298 -398 -422 -19
-17 -66 -60 -105 -95 -38 -35 -76 -64 -82 -64 -7 0 -22 -9 -33 -20 -19 -19
-72 -57 -136 -96 -19 -11 -44 -30 -56 -41 -13 -11 -39 -26 -58 -33 -19 -6 -48
-20 -65 -30 -50 -32 -227 -123 -285 -148 -168 -71 -466 -166 -575 -182 -33 -5
-114 -18 -180 -29 -350 -59 -820 -41 -1145 43 -206 54 -421 123 -480 155 -19
10 -48 22 -65 25 -16 4 -37 13 -45 21 -13 11 -53 33 -235 128 -16 8 -41 20
-55 27 -14 6 -41 19 -60 30 -61 32 -106 33 -215 5 -55 -14 -146 -37 -203 -50
-57 -14 -109 -28 -115 -32 -6 -4 -29 -10 -52 -14 -34 -6 -137 -34 -388 -104
-71 -19 -133 -17 -130 5 5 33 42 188 58 240 9 30 21 78 27 105 6 28 20 82 33
120 13 39 28 97 35 130 6 33 20 87 30 120 67 210 70 253 27 340 -44 90 -64
125 -80 143 -9 9 -25 40 -37 67 -12 28 -27 57 -34 65 -7 8 -37 67 -66 130 -29
63 -61 131 -71 151 -11 20 -19 47 -19 59 0 12 -6 34 -14 48 -31 60 -47 107
-53 151 -3 25 -10 51 -15 57 -5 7 -20 59 -34 115 -13 57 -27 113 -30 124 -21
70 -40 239 -54 463 -10 160 -9 214 6 377 9 105 17 199 18 210 1 11 8 47 15 80
43 204 54 254 66 285 7 19 20 66 29 104 10 38 25 87 35 110 10 22 29 69 41
104 12 34 26 65 31 68 5 3 14 24 20 47 6 23 20 54 30 68 10 15 19 32 19 39 0
16 101 203 117 215 7 6 19 27 28 48 9 21 22 40 30 44 8 3 15 13 15 22 1 9 14
32 30 51 17 19 30 40 30 46 0 7 7 14 14 17 8 3 23 21 32 39 9 18 34 52 55 75
22 24 39 46 39 51 0 17 336 348 414 407 43 33 86 65 95 70 16 10 83 64 112 90
9 8 20 15 26 15 5 0 28 13 49 28 96 69 273 164 326 176 15 3 34 13 42 21 8 9
30 21 48 27 18 6 60 23 93 38 33 15 83 32 110 39 28 7 60 19 73 27 32 21 170
56 192 49 10 -3 21 -1 25 5 11 18 53 30 134 40 41 6 88 15 105 21 39 13 368
35 496 33 52 -1 165 -5 250 -9z"/>
<path d="M3083 6410 c-112 -16 -201 -69 -310 -184 -62 -65 -173 -214 -173
-232 0 -3 -10 -19 -21 -36 -12 -16 -28 -50 -35 -75 -8 -25 -18 -51 -22 -57 -5
-6 -16 -33 -25 -61 -45 -143 -57 -396 -25 -562 26 -139 124 -410 170 -472 10
-13 18 -28 18 -33 0 -5 15 -32 33 -61 18 -29 38 -64 44 -78 6 -15 40 -66 75
-114 35 -48 83 -117 108 -154 72 -106 176 -241 264 -346 14 -16 38 -46 53 -65
43 -54 109 -120 122 -120 6 0 11 -7 11 -15 0 -17 167 -186 210 -213 14 -9 28
-22 33 -29 11 -18 185 -163 196 -163 5 0 16 -12 26 -26 9 -14 30 -30 46 -36
16 -5 29 -16 29 -24 0 -8 5 -14 11 -14 6 0 28 -13 49 -30 21 -16 42 -30 48
-30 5 0 15 -6 21 -13 6 -8 40 -29 76 -47 36 -18 65 -36 65 -40 0 -4 11 -10 23
-14 13 -3 50 -21 82 -41 33 -19 65 -35 73 -35 8 0 26 -8 40 -19 15 -10 45 -24
67 -31 22 -7 62 -23 89 -36 28 -13 57 -24 66 -24 9 0 20 -4 26 -9 5 -5 52 -23
104 -40 52 -17 109 -36 125 -42 38 -13 171 -56 210 -68 17 -5 50 -12 75 -16
25 -4 70 -14 100 -23 81 -24 401 -23 485 2 33 10 74 21 90 26 37 9 132 57 140
70 4 6 22 17 42 25 19 8 47 25 63 37 15 13 56 43 89 67 118 84 240 248 262
351 4 19 17 72 28 118 25 101 29 254 6 298 -24 49 -82 110 -145 153 -33 23
-65 41 -71 41 -6 0 -135 61 -286 135 -150 74 -281 135 -290 135 -8 0 -31 9
-49 21 -49 30 -147 52 -199 45 -42 -7 -145 -69 -173 -104 -24 -31 -57 -73 -84
-106 -16 -19 -28 -38 -28 -44 0 -6 -19 -31 -42 -56 -24 -25 -59 -65 -78 -88
-48 -56 -114 -97 -108 -65 2 8 -9 11 -38 9 -28 -2 -45 2 -53 12 -8 9 -18 16
-24 16 -5 0 -46 18 -91 39 -44 22 -101 49 -126 61 -49 22 -122 66 -194 117
-24 17 -60 42 -78 55 -35 25 -92 70 -145 115 -105 90 -353 362 -353 387 0 7
-7 19 -16 26 -48 41 -143 192 -158 253 -8 32 7 55 118 190 107 131 176 261
176 330 0 56 -52 218 -97 303 -12 23 -28 64 -36 91 -8 27 -24 64 -36 83 -11
19 -21 46 -21 59 0 14 -6 32 -13 40 -8 9 -24 43 -37 76 -90 232 -153 325 -253
376 -62 32 -236 46 -354 29z m341 -114 c41 -31 92 -105 120 -176 26 -65 40
-100 60 -145 29 -64 42 -97 61 -145 9 -25 23 -58 30 -75 7 -16 27 -66 45 -110
40 -100 58 -142 77 -180 20 -39 28 -133 14 -165 -36 -80 -116 -192 -208 -290
-89 -96 -98 -110 -97 -161 0 -34 8 -58 32 -93 18 -26 32 -50 32 -53 0 -3 14
-22 30 -43 17 -21 30 -41 30 -44 0 -8 139 -193 180 -240 141 -165 230 -250
380 -365 98 -75 151 -111 275 -188 11 -7 43 -24 70 -38 28 -14 57 -30 65 -34
8 -5 35 -18 60 -29 108 -48 167 -75 192 -88 35 -18 88 -18 116 2 12 8 54 54
94 102 40 48 82 97 93 110 12 12 59 74 106 137 100 135 132 157 202 135 62
-19 196 -80 457 -207 228 -110 313 -154 325 -164 5 -5 17 -9 27 -9 9 0 36 -18
59 -40 l42 -40 -7 -112 c-4 -62 -14 -138 -22 -168 -35 -124 -49 -167 -67 -203
-30 -59 -223 -247 -253 -247 -4 0 -15 -6 -23 -14 -24 -21 -105 -63 -174 -92
-34 -13 -71 -29 -82 -34 -11 -5 -81 -15 -155 -23 -119 -13 -150 -13 -250 0
-63 8 -139 21 -167 29 -29 8 -79 22 -110 30 -32 9 -92 27 -133 41 -41 13 -88
28 -105 33 -48 13 -98 32 -127 46 -14 8 -33 14 -41 14 -9 0 -28 6 -44 14 -15
8 -48 22 -73 31 -64 25 -92 37 -210 96 -116 57 -126 62 -187 102 -24 15 -47
27 -52 27 -5 0 -11 3 -13 8 -1 4 -37 29 -78 57 -41 27 -97 68 -125 90 -27 22
-60 48 -73 56 -121 85 -439 403 -592 594 -30 38 -69 85 -86 104 -17 20 -41 53
-53 74 -12 20 -27 37 -32 37 -5 0 -9 5 -9 11 0 6 -20 37 -45 69 -25 32 -45 61
-45 65 0 4 -20 33 -45 65 -25 32 -45 61 -45 64 0 2 -19 33 -43 68 -24 35 -46
70 -50 78 -4 8 -11 23 -17 33 -45 78 -130 260 -130 278 0 6 -6 25 -13 42 -21
48 -43 132 -61 228 -46 248 11 533 152 751 54 84 80 115 168 205 110 111 143
122 355 120 155 -2 156 -2 193 -31z"/>
<path d="M650 815 c0 -8 5 -15 10 -15 6 0 10 7 10 15 0 8 -4 15 -10 15 -5 0
-10 -7 -10 -15z"/>
</g>
</svg>
